<?xml version="1.0" encoding="UTF-8" standalone="no"?>
<!-- Created with Inkscape (http://www.inkscape.org/) -->

<svg
   width="277.646"
   height="33.827469"
   viewBox="0 0 73.460495 8.9501844"
   version="1.1"
   id="svg5"
   inkscape:version="1.2.2 (732a01da63, 2022-12-09, custom)"
   sodipodi:docname="logo.svg"
   xmlns:inkscape="http://www.inkscape.org/namespaces/inkscape"
   xmlns:sodipodi="http://sodipodi.sourceforge.net/DTD/sodipodi-0.dtd"
   xmlns="http://www.w3.org/2000/svg"
   xmlns:svg="http://www.w3.org/2000/svg"
   xmlns:rdf="http://www.w3.org/1999/02/22-rdf-syntax-ns#"
   xmlns:cc="http://creativecommons.org/ns#"
   xmlns:dc="http://purl.org/dc/elements/1.1/">
  <sodipodi:namedview
     id="namedview7"
     pagecolor="#ffffff"
     bordercolor="#000000"
     borderopacity="0.25"
     inkscape:showpageshadow="2"
     inkscape:pageopacity="0.0"
     inkscape:pagecheckerboard="0"
     inkscape:deskcolor="#d1d1d1"
     inkscape:document-units="px"
     showgrid="false"
     inkscape:zoom="3.8676798"
     inkscape:cx="141.42846"
     inkscape:cy="62.957642"
     inkscape:window-width="1920"
     inkscape:window-height="1043"
     inkscape:window-x="0"
     inkscape:window-y="0"
     inkscape:window-maximized="1"
     inkscape:current-layer="layer1" />
  <defs
     id="defs2" />
  <g
     inkscape:label="Layer 1"
     inkscape:groupmode="layer"
     id="layer1"
     transform="translate(-1.0583334,-1.0583333)">
    <path
       d="m 19.587795,9.6539412 q -0.171912,0 -0.257868,-0.064467 -0.07521,-0.064467 -0.07521,-0.21489 V 7.9670546 q -0.139678,-0.0967 -0.52648,-0.171912 -0.386802,-0.075211 -0.730626,-0.0967 -0.11819,0.2256345 -0.171912,0.5479695 l -0.04298,0.21489 q -0.01075,0.075211 -0.06447,0.3330795 -0.05372,0.257868 -0.11819,0.451269 -0.06447,0.1826566 -0.128934,0.2901016 -0.408291,0 -0.472758,-0.2148901 0.11819,-0.171912 0.268613,-1.009983 l 0.354568,-1.9662435 q 0.236379,-1.396785 0.42978,-2.385279 0.204146,-0.988494 0.42978,-1.6546531 0.247124,-0.7413705 0.472758,-0.7413705 0.225635,0 0.343824,0.085956 0,0.42978 0.204146,2.0736886 0.21489,1.611675 0.21489,2.2026225 0,0.5694585 0.118189,1.633164 0.107445,1.0851945 0.107445,1.7298645 0,0.3653131 -0.354568,0.3653131 z M 19.029081,7.3438736 q 0.08596,0 0.21489,-0.032234 -0.03223,-0.472758 -0.107445,-1.1711505 -0.247124,-2.428257 -0.247124,-2.9762265 v -0.085956 q -0.107445,0.107445 -0.300846,0.9777495 -0.182656,0.85956 -0.343824,1.848054 -0.161167,0.988494 -0.171912,1.310829 0.451269,0.128934 0.956261,0.1289345 z"
       style="font-weight:bold;font-size:10.7445px;font-family:'Amatic SC';-inkscape-font-specification:'Amatic SC Bold';fill:#393e41;stroke-width:0.125912"
       id="path307" />
    <path
       d="m 22.67145,9.8043642 q -0.236379,0 -0.504991,-0.075211 Q 21.908591,9.6646857 21.768912,9.5787297 21.04903,9.1167161 21.04903,7.0537721 V 6.7636706 6.4305911 6.1727231 q 0,-0.42978 0.01075,-0.7628595 0.01074,-0.343824 0.04298,-0.7413705 0.03223,-0.4190355 0.0967,-0.6769035 0.06447,-0.2686125 0.214891,-0.601692 0.128934,-0.3115905 0.31159,-0.4835025 0.193401,-0.171912 0.494247,-0.2901016 0.268613,-0.1181895 0.666159,-0.1181895 0.161168,0 0.247124,0.075211 0.08596,0.075212 0.08596,0.1934011 0,0.107445 -0.07521,0.193401 -0.06447,0.085956 -0.161167,0.096701 h -0.504992 q -0.21489,0 -0.376057,0.2686125 -0.161168,0.2686125 -0.225635,0.6983925 -0.139678,0.795093 -0.139678,1.28934 v 0.053723 l -0.02149,1.031472 q -0.02149,0.4620135 -0.02149,1.0422165 0,0.408291 0.03223,0.666159 0.05372,0.386802 0.182657,0.64467 0.128934,0.2901015 0.440524,0.4190355 0.161168,0.064467 0.354569,0.064467 0.118189,0 0.236379,-0.085956 0.139678,0 0.225634,0.064467 0.0967,0.053722 0.0967,0.1719121 0,0.4190355 -0.590948,0.4190355 z"
       style="font-weight:bold;font-size:10.7445px;font-family:'Amatic SC';-inkscape-font-specification:'Amatic SC Bold';fill:#393e41;stroke-width:0.125912"
       id="path309" />
    <path
       d="m 24.831087,9.4820292 -0.01074,-0.4190356 q -0.01075,-0.1826565 -0.01075,-0.408291 l 0.01075,-0.365313 Q 24.788109,8.1712001 24.659175,5.9363441 24.530241,3.7014881 24.508752,3.0675626 23.885571,3.0460736 23.713659,2.9386286 23.59547,2.8526726 23.59547,2.7452276 q 0,-0.085956 0.107445,-0.1504231 0.118189,-0.075211 0.236379,-0.075211 0.300846,0 0.730626,0.042978 0.408291,0.053722 0.730626,0.053722 h 0.08596 0.08596 q 0.333079,0 0.333079,0.2578681 0,0.128934 -0.107445,0.21489 -0.107445,0.075211 -0.247123,0.075211 -0.0967,0 -0.279357,-0.032233 l -0.21489,-0.042978 -0.01075,0.053723 -0.01074,0.053723 q 0,0.9562605 0.182656,3.051438 0.171912,1.9662435 0.171912,3.051438 0,0.1289341 -0.118189,0.2256346 -0.107445,0.096701 -0.247124,0.096701 z"
       style="font-weight:bold;font-size:10.7445px;font-family:'Amatic SC';-inkscape-font-specification:'Amatic SC Bold';fill:#393e41;stroke-width:0.125912"
       id="path311" />
    <path
       d="m 27.517198,9.6431967 q -0.934772,0 -0.934772,-0.3223351 0,-0.257868 0.33308,-0.257868 h 0.118189 l 0.107445,0.010744 q 0.08596,0 0.11819,-0.053722 0.03223,-0.053723 0.03223,-0.193401 0,-0.1826565 -0.02149,-0.5694585 -0.03223,-0.257868 -0.07521,-0.924027 -0.0967,-1.6439085 -0.0967,-2.4819795 0,-0.300846 0.01075,-0.5479695 l 0.01074,-0.5479695 q 0,-0.3545685 -0.03223,-0.5909475 -0.171912,0.042978 -0.247124,0.042978 -0.257868,0 -0.257868,-0.257868 0,-0.128934 0.161168,-0.2256345 0.161167,-0.096701 0.408291,-0.1396786 0.42978,-0.085956 0.762859,-0.085956 0.128934,0 0.21489,0.0967 0.0967,0.085956 0.0967,0.2041456 0,0.1181895 -0.07521,0.2041455 -0.06447,0.085956 -0.171912,0.085956 -0.06447,0 -0.107445,-0.010744 h -0.08596 q -0.107445,0 -0.161167,0.053723 -0.04298,0.042978 -0.04298,0.171912 0,1.0422165 0.128934,3.137394 0.02149,0.386802 0.08596,1.138917 0.05372,0.494247 0.05372,1.009983 v 0.408291 q 0.06447,-0.010744 0.21489,-0.010744 0.451269,0 0.451269,0.3760576 v 0.064467 l -0.268612,0.1826565 q -0.01075,0 -0.07521,0.010744 -0.05372,0 -0.21489,0 -0.343824,0.021489 -0.440524,0.021489 z"
       style="font-weight:bold;font-size:10.7445px;font-family:'Amatic SC';-inkscape-font-specification:'Amatic SC Bold';fill:#393e41;stroke-width:0.125912"
       id="path313" />
    <path
       d="m 30.235554,9.6217077 q 0,-1.2356176 -0.236379,-2.5571911 -0.225634,-1.3215735 -0.719881,-3.2340945 -0.02149,-0.107445 -0.0967,-0.3330795 -0.193401,-0.601692 -0.193401,-0.7628595 0,-0.096701 0.07521,-0.1719121 0.08596,-0.075211 0.182656,-0.075211 0.161168,0 0.300846,0.2686126 0.139679,0.257868 0.257868,0.6983925 0.11819,0.42978 0.257868,1.07445 0.128934,0.6124365 0.311591,1.8802875 l 0.06447,0.4190355 0.128934,0.9562605 q 0.04298,0.3975465 0.07521,0.5694585 0.225635,-1.181895 0.580203,-3.416751 0.290102,-1.912521 0.408291,-2.6109136 h 0.236379 q 0.0967,0 0.171912,0.075211 0.07521,0.064467 0.07521,0.1611675 0,0.3868021 -0.0967,0.8380711 -0.08596,0.4405245 -0.268612,1.0637055 -0.150423,0.537225 -0.204146,0.8058375 -0.04298,0.2686125 -0.08596,0.8488155 -0.08596,1.3000845 -0.268612,2.3315565 -0.11819,0.623181 -0.311591,0.9777496 -0.193401,0.3545685 -0.440524,0.3545685 z"
       style="font-weight:bold;font-size:10.7445px;font-family:'Amatic SC';-inkscape-font-specification:'Amatic SC Bold';fill:#393e41;stroke-width:0.125912"
       id="path315" />
    <path
       d="m 33.72751,9.6431967 q -0.934772,0 -0.934772,-0.3223351 0,-0.257868 0.33308,-0.257868 h 0.118189 l 0.107445,0.010744 q 0.08596,0 0.11819,-0.053722 0.03223,-0.053723 0.03223,-0.193401 0,-0.1826565 -0.02149,-0.5694585 -0.03223,-0.257868 -0.07521,-0.924027 -0.0967,-1.6439085 -0.0967,-2.4819795 0,-0.300846 0.01075,-0.5479695 l 0.01074,-0.5479695 q 0,-0.3545685 -0.03223,-0.5909475 -0.171912,0.042978 -0.247124,0.042978 -0.257868,0 -0.257868,-0.257868 0,-0.128934 0.161168,-0.2256345 0.161167,-0.096701 0.408291,-0.1396786 0.42978,-0.085956 0.762859,-0.085956 0.128934,0 0.21489,0.0967 0.0967,0.085956 0.0967,0.2041456 0,0.1181895 -0.07521,0.2041455 -0.06447,0.085956 -0.171912,0.085956 -0.06447,0 -0.107445,-0.010744 h -0.08596 q -0.107445,0 -0.161167,0.053723 -0.04298,0.042978 -0.04298,0.171912 0,1.0422165 0.128934,3.137394 0.02149,0.386802 0.08596,1.138917 0.05372,0.494247 0.05372,1.009983 v 0.408291 q 0.06447,-0.010744 0.21489,-0.010744 0.451269,0 0.451269,0.3760576 v 0.064467 l -0.268612,0.1826565 q -0.01075,0 -0.07521,0.010744 -0.05372,0 -0.21489,0 -0.343824,0.021489 -0.440524,0.021489 z"
       style="font-weight:bold;font-size:10.7445px;font-family:'Amatic SC';-inkscape-font-specification:'Amatic SC Bold';fill:#393e41;stroke-width:0.125912"
       id="path317" />
    <path
       d="M 35.811941,9.8043642 Q 35.61854,9.7721307 35.478861,9.6646857 35.349927,9.5572407 35.328438,9.3853287 l 0.11819,-0.1826566 q 0.06447,0 0.204145,0.042978 0.161168,0.032233 0.247124,0.032233 0.193401,0 0.343824,-0.171912 0.161167,-0.171912 0.236379,-0.451269 0.139678,-0.515736 0.139678,-0.924027 0,-0.709137 -0.451269,-1.4934855 L 36.04832,6.0330446 Q 35.844174,5.6784761 35.704496,5.3991191 35.564817,5.1197621 35.468117,4.7974271 35.339183,4.3783916 35.339183,3.9593561 q 0,-0.472758 0.21489,-0.988494 0.107445,-0.2471235 0.300846,-0.3975466 0.204145,-0.1611675 0.451269,-0.1611675 0.193401,0 0.354568,0.128934 0.171912,0.1181896 0.171912,0.2901016 0,0.0967 -0.07521,0.150423 -0.07521,0.053722 -0.182657,0.053722 -0.118189,0 -0.225634,-0.064467 -0.236379,0.010744 -0.376058,0.4190355 -0.118189,0.3760575 -0.118189,0.623181 0,0.3115905 0.0967,0.6339255 0.0967,0.3115905 0.247124,0.5694585 l 0.236379,0.42978 0.376057,0.709137 q 0.150423,0.300846 0.236379,0.6983925 0.0967,0.3975465 0.0967,0.8058375 0,0.6554145 -0.300846,1.246362 -0.150423,0.3008461 -0.42978,0.4835026 -0.268613,0.1826565 -0.601692,0.1826565 z"
       style="font-weight:bold;font-size:10.7445px;font-family:'Amatic SC';-inkscape-font-specification:'Amatic SC Bold';fill:#393e41;stroke-width:0.125912"
       id="path319" />
    <path
       d="M 38.87412,9.4820292 38.86338,9.0629936 Q 38.85263,8.8803371 38.85263,8.6547026 l 0.01075,-0.365313 Q 38.83115,8.1712001 38.702212,5.9363441 38.573278,3.7014881 38.551789,3.0675626 q -0.623181,-0.021489 -0.795093,-0.128934 -0.118189,-0.085956 -0.118189,-0.193401 0,-0.085956 0.107445,-0.1504231 0.118189,-0.075211 0.236379,-0.075211 0.300846,0 0.730626,0.042978 0.408291,0.053722 0.730626,0.053722 h 0.08596 0.08596 q 0.333079,0 0.333079,0.2578681 0,0.128934 -0.107445,0.21489 -0.107445,0.075211 -0.247123,0.075211 -0.0967,0 -0.279357,-0.032233 l -0.21489,-0.042978 -0.01075,0.053723 -0.01074,0.053723 q 0,0.9562605 0.182656,3.051438 0.171912,1.9662435 0.171912,3.051438 0,0.1289341 -0.118189,0.2256346 -0.107445,0.096701 -0.247124,0.096701 z"
       style="font-weight:bold;font-size:10.7445px;font-family:'Amatic SC';-inkscape-font-specification:'Amatic SC Bold';fill:#393e41;stroke-width:0.125912"
       id="path321" />
    <path
       d="m 43.472737,9.7721307 q -0.139678,0 -0.257868,-0.107445 -0.107445,-0.0967 -0.107445,-0.236379 0,-0.096701 0.04298,-0.2363791 0.03223,-0.150423 0.03223,-0.2256345 0,-0.9562605 -0.107445,-3.674619 -0.107445,-2.320812 -0.107445,-3.6638746 0,-0.096701 0.07521,-0.150423 0.07521,-0.064467 0.182657,-0.064467 0.128934,0 0.225634,0.0967 0.0967,0.085956 0.0967,0.21489 0,0.64467 0.06447,1.9340101 0.05372,1.4290185 0.05372,1.93401 l 0.01075,0.128934 v 0.128934 0.075211 0.053723 q 0.03223,0.9347715 0.03223,2.79357 v 0.279357 h 0.827327 q 0.225634,0.1611675 0.225634,0.3223351 0,0.1181895 -0.08596,0.21489 -0.07521,0.085956 -0.182656,0.085956 -0.03223,0 -0.11819,-0.021489 l -0.04298,-0.010744 q -0.06447,0.010744 -0.204145,0.010744 h -0.182657 q -0.07521,-0.010744 -0.171912,-0.010744 -0.107445,0.128934 -0.300846,0.128934 z"
       style="font-weight:bold;font-size:10.7445px;font-family:'Amatic SC';-inkscape-font-specification:'Amatic SC Bold';fill:#393e41;stroke-width:0.125912"
       id="path323" />
    <path
       d="m 46.169586,9.7936197 q -0.139679,0 -0.257868,-0.096701 -0.107445,-0.096701 -0.11819,-0.236379 v -0.2793571 -0.21489 q -0.01074,-0.0967 -0.01074,-0.2256345 0,-0.2256345 -0.03223,-0.687648 l -0.02149,-0.687648 q 0,-0.5264805 0.03223,-1.568697 0.04298,-0.9347715 0.04298,-1.568697 0,-0.150423 -0.03223,-0.451269 -0.03223,-0.3115905 -0.03223,-0.451269 0,-0.7628596 0.451269,-0.7628596 0.354568,0 0.816582,0.1396786 0.472758,0.1396785 0.472758,0.3330795 0,0.107445 -0.0967,0.2041455 -0.08596,0.085956 -0.21489,0.1396785 -0.451269,-0.1611675 -0.816582,-0.21489 0.01075,0.1611675 0.01075,0.4620135 0,0.42978 -0.01075,0.773604 -0.03223,0.515736 -0.03223,0.773604 l 0.03223,0.171912 0.171912,-0.010745 q 0.08596,-0.010744 0.21489,-0.010744 0.515736,0 0.515736,0.300846 0,0.1181895 -0.0967,0.2041455 -0.0967,0.075211 -0.247124,0.075211 -0.193401,0 -0.300846,-0.021489 h -0.268612 q 0.02149,0.279357 0.02149,0.816582 0,0.537225 -0.01075,0.967005 -0.03223,0.6554145 -0.03223,0.9777495 0,0.601692 0.02149,0.601692 l 0.354568,-0.010745 q 0.182657,-0.010744 0.440525,-0.010744 0.408291,0 0.408291,0.2578681 0,0.150423 -0.139679,0.2256345 -0.128934,0.085956 -0.322335,0.085956 z"
       style="font-weight:bold;font-size:10.7445px;font-family:'Amatic SC';-inkscape-font-specification:'Amatic SC Bold';fill:#393e41;stroke-width:0.125912"
       id="path325" />
    <path
       d="m 51.660009,9.6861747 q -0.128934,0 -0.193401,-0.064467 -0.06447,-0.075211 -0.0967,-0.2471235 l -0.06447,-0.2041456 v -0.021489 -0.032234 q 0,-0.3545685 -0.741371,-2.4175125 -0.730626,-2.062944 -1.149661,-3.051438 v 5.4044835 l 0.04298,0.075211 q 0.01074,0.021489 0.04298,0.075211 0.03223,0.053723 0.03223,0.107445 0,0.1396786 -0.0967,0.2363791 -0.0967,0.096701 -0.236379,0.096701 -0.343824,0 -0.343824,-0.6554146 L 48.84495,7.1504726 q -0.01074,-0.8273265 -0.01074,-1.848054 0,-0.343824 0.03223,-0.9992385 0.03223,-0.6769035 0.03223,-0.9992385 0,-0.5049915 0.386802,-0.7950931 v 0.064467 q 0.06447,-0.021489 0.08596,-0.021489 0.247123,0 0.623181,0.8595601 0.300846,0.687648 0.537225,1.4505075 0.247123,0.7628595 0.64467,2.170389 l 0.107445,0.386802 q 0.247123,0.8703045 0.376057,1.246362 0.21489,-2.3100675 0.21489,-5.458206 V 3.0675626 q -0.01074,-0.064467 -0.01074,-0.1396785 0,-0.3223351 0.257868,-0.3223351 0.150423,0 0.225634,0.1181896 0.08596,0.1181895 0.08596,0.300846 v 0.8058375 q -0.02149,1.654653 -0.128934,3.588663 -0.107445,1.93401 -0.257868,2.1811336 -0.31159,0.085956 -0.386802,0.085956 z"
       style="font-weight:bold;font-size:10.7445px;font-family:'Amatic SC';-inkscape-font-specification:'Amatic SC Bold';fill:#393e41;stroke-width:0.125912"
       id="path327" />
    <path
       d="m 54.066759,9.8043642 q -0.193401,-0.032234 -0.33308,-0.1396785 -0.128934,-0.107445 -0.150423,-0.279357 l 0.11819,-0.1826566 q 0.06447,0 0.204145,0.042978 0.161168,0.032233 0.247124,0.032233 0.193401,0 0.343824,-0.171912 0.161167,-0.171912 0.236379,-0.451269 0.139678,-0.515736 0.139678,-0.924027 0,-0.709137 -0.451269,-1.4934855 L 54.303138,6.0330446 Q 54.098992,5.6784761 53.959314,5.3991191 53.819635,5.1197621 53.722935,4.7974271 53.594001,4.3783916 53.594001,3.9593561 q 0,-0.472758 0.21489,-0.988494 0.107445,-0.2471235 0.300846,-0.3975466 0.204145,-0.1611675 0.451269,-0.1611675 0.193401,0 0.354568,0.128934 0.171912,0.1181896 0.171912,0.2901016 0,0.0967 -0.07521,0.150423 -0.07521,0.053722 -0.182657,0.053722 -0.118189,0 -0.225634,-0.064467 -0.236379,0.010744 -0.376058,0.4190355 -0.118189,0.3760575 -0.118189,0.623181 0,0.3115905 0.0967,0.6339255 0.0967,0.3115905 0.247124,0.5694585 l 0.236379,0.42978 0.376057,0.709137 q 0.150423,0.300846 0.236379,0.6983925 0.0967,0.3975465 0.0967,0.8058375 0,0.6554145 -0.300846,1.246362 -0.150423,0.3008461 -0.42978,0.4835026 -0.268613,0.1826565 -0.601692,0.1826565 z"
       style="font-weight:bold;font-size:10.7445px;font-family:'Amatic SC';-inkscape-font-specification:'Amatic SC Bold';fill:#393e41;stroke-width:0.125912"
       id="path329" />
    <path
       d="m 57.311595,9.8795757 q -0.21489,0 -0.376058,-0.6446701 -0.139678,-0.5694585 -0.236379,-1.4075295 -0.08596,-0.8488155 -0.182656,-2.1381555 -0.05372,-0.838071 -0.150423,-1.7943315 -0.07521,-0.795093 -0.182657,-1.0207275 0.0967,-0.193401 0.311591,-0.193401 0.343824,0 0.343824,0.709137 0,0.838071 0.225634,2.449746 0.225635,1.6009305 0.257868,2.3315565 l 0.05372,-0.365313 q 0.107445,-0.7198815 0.182656,-1.353807 0.08596,-0.64467 0.139679,-1.3860405 0.07521,-0.8273265 0.07521,-1.633164 l 0.290102,-0.128934 q 0.139678,0 0.225634,0.075211 0.0967,0.064467 0.0967,0.193401 v 0.085956 q 0.171912,0.601692 0.279357,1.3215735 0.118189,0.709137 0.204145,1.676142 0.06447,0.7413705 0.150423,1.3860405 0.204146,-1.439763 0.204146,-3.545685 0,-0.3330795 0.08596,-0.816582 0.07521,-0.494247 0.07521,-0.8058375 -0.03223,-0.0967 -0.03223,-0.1826565 0,-0.2578681 0.322335,-0.2578681 0.128934,0 0.204145,0.064467 0.07521,0.064467 0.07521,0.1826566 v 0.1611675 q 0,0.1611675 -0.03223,0.279357 v 0.053722 q -0.139678,0.42978 -0.139678,0.988494 v 0.7843485 q 0,0.6769035 -0.161168,2.019966 -0.171912,1.310829 -0.171912,1.955499 v 0.193401 q 0,0.2471236 -0.05372,0.4190356 -0.06447,0.21489 -0.311591,0.21489 -0.171912,0 -0.268612,-0.107445 -0.08596,-0.1181895 -0.08596,-0.2901016 0,-0.8703045 -0.182657,-2.256345 -0.0967,-0.623181 -0.204145,-1.2571065 L 58.171155,4.7114711 q -0.04298,0.3115905 -0.04298,0.6124365 0,0.601692 -0.08596,1.590186 -0.08596,0.988494 -0.268613,1.9232655 -0.204145,1.0422166 -0.462013,1.0422166 z"
       style="font-weight:bold;font-size:10.7445px;font-family:'Amatic SC';-inkscape-font-specification:'Amatic SC Bold';fill:#393e41;stroke-width:0.125912"
       id="path331" />
    <path
       d="m 62.393732,9.8580867 q -0.279357,0 -0.515736,-0.1826565 -0.236379,-0.171912 -0.386802,-0.4727581 -0.311591,-0.6554145 -0.386802,-1.4290185 -0.0967,-0.730626 -0.0967,-1.4075295 0,-0.128934 0.01075,-0.21489 v -0.193401 q 0,-0.053723 -0.01075,-0.053723 v -0.193401 l 0.01075,-0.752115 q 0.01074,-0.343824 0.08596,-1.095939 0.05372,-0.515736 0.247123,-0.9992385 0.07521,-0.21489 0.193401,-0.3223351 0.11819,-0.1181895 0.268613,-0.1181895 0.42978,0 0.773604,0.1611675 0.343824,0.1504231 0.580203,0.4297801 0.21489,0.2686125 0.365313,0.666159 0.150423,0.386802 0.21489,0.8273265 0.06447,0.451269 0.06447,0.9562605 v 0.085956 q 0,0.3330795 0.01074,0.601692 l 0.01075,0.6124365 q 0,3.0944161 -1.439763,3.0944161 z m -0.04298,-0.451269 q 0.193401,0 0.354568,-0.1504231 0.161168,-0.1611675 0.247124,-0.42978 0.204145,-0.5479695 0.247123,-1.181895 0.05372,-0.5479695 0.05372,-0.945516 0,-0.4835025 -0.07521,-1.267851 -0.06447,-0.8273265 -0.06447,-1.2356175 v -0.193401 q -0.02149,-0.408291 -0.279357,-0.709137 -0.247123,-0.300846 -0.612436,-0.300846 -0.365313,0 -0.483503,0.4190355 -0.107445,0.3330795 -0.107445,0.85956 0,0.2041455 0.01075,0.343824 v 0.2901015 l -0.02149,0.494247 q -0.02149,0.2256345 -0.02149,0.494247 0,0.580203 0.03223,1.1496615 0.04298,0.8058375 0.21489,1.568697 0.171912,0.7950931 0.504992,0.7950931 z"
       style="font-weight:bold;font-size:10.7445px;font-family:'Amatic SC';-inkscape-font-specification:'Amatic SC Bold';fill:#393e41;stroke-width:0.125912"
       id="path333" />
    <path
       d="m 66.88492,9.8365977 q -0.236379,0 -0.42978,-0.5157361 -0.225634,-0.558714 -0.333079,-1.1496615 l -0.07521,-0.365313 Q 65.735259,6.2694236 65.649303,6.0545336 h -0.128934 q 0,0.3115905 -0.01075,0.5694585 v 0.5909475 q 0,1.439763 0.204146,2.2456006 L 65.59558,9.7506417 H 65.294734 L 65.155056,9.5894742 65.1658,8.8695926 q 0,-0.967005 -0.0967,-2.9332485 -0.08596,-2.0951775 -0.08596,-2.9332485 0,-0.5157361 0.354568,-0.5157361 0.580203,0 0.945516,0.3008461 0.376058,0.300846 0.376058,0.838071 v 0.752115 q 0,0.1611675 -0.05372,0.3760575 -0.05372,0.2041455 -0.118189,0.3330795 l -0.204146,0.386802 -0.171912,0.322335 0.05372,0.257868 0.150423,0.7628595 q 0.150423,0.8273265 0.290101,1.3430625 0.139679,0.515736 0.343824,0.9347715 l 0.06447,0.128934 q 0.107445,0.2148901 0.107445,0.3438241 0,0.107445 -0.06447,0.1826565 -0.06447,0.085956 -0.171912,0.085956 z M 65.563347,5.5280531 q 0.236379,-0.1181895 0.397546,-0.64467 0.171912,-0.537225 0.171912,-0.988494 0,-0.343824 -0.08596,-0.64467 -0.05372,-0.171912 -0.182656,-0.257868 -0.11819,-0.0967 -0.300846,-0.0967 l -0.02149,0.053722 -0.02149,0.096701 0.02149,1.267851 q 0.02149,0.558714 0.02149,1.2141285 z"
       style="font-weight:bold;font-size:10.7445px;font-family:'Amatic SC';-inkscape-font-specification:'Amatic SC Bold';fill:#393e41;stroke-width:0.125912"
       id="path335" />
    <path
       d="m 70.70994,9.8365977 q -0.247123,0 -0.52648,-0.5372251 Q 69.764424,8.4935351 69.356133,6.6454811 69.237944,6.1404896 69.162732,5.7107096 68.77593,6.4843136 68.77593,7.5802526 v 1.9877326 q 0,0.2471235 -0.21489,0.2471235 -0.161167,0 -0.268612,-0.0967 -0.0967,-0.085956 -0.0967,-0.2471235 V 6.2157011 q 0,-0.472758 0.107445,-1.740609 0.107445,-1.1066835 0.107445,-1.740609 0.08596,-0.2041456 0.311591,-0.2041456 0.139678,0 0.236379,0.096701 0.0967,0.096701 0.0967,0.2363791 v 0.032234 q -0.139678,0.236379 -0.139678,1.955499 v 0.386802 L 69.313156,4.4536041 Q 69.678469,3.6907446 70.000804,3.1427751 70.30165,2.60555 70.441329,2.60555 q 0.171912,0 0.290101,0.075212 0.128934,0.075211 0.128934,0.21489 l -0.257868,0.42978 q -0.805837,1.3000845 -0.902538,1.50423 0,0.1826565 -0.01074,0.322335 l -0.01075,0.322335 q 0,0.4620135 0.365313,1.7298645 0.376058,1.2571065 0.623181,1.6653975 l 0.139679,0.193401 q 0.204145,0.279357 0.204145,0.4942471 0,0.1181895 -0.0967,0.193401 -0.08596,0.085956 -0.204146,0.085956 z"
       style="font-weight:bold;font-size:10.7445px;font-family:'Amatic SC';-inkscape-font-specification:'Amatic SC Bold';fill:#393e41;stroke-width:0.125912"
       id="path337" />
    <path
       d="M 72.128198,9.8043642 Q 71.934797,9.7721307 71.795119,9.6646857 71.666185,9.5572407 71.644696,9.3853287 l 0.118189,-0.1826566 q 0.06447,0 0.204146,0.042978 0.161167,0.032233 0.247123,0.032233 0.193401,0 0.343824,-0.171912 0.161168,-0.171912 0.236379,-0.451269 0.139679,-0.515736 0.139679,-0.924027 0,-0.709137 -0.451269,-1.4934855 l -0.11819,-0.204145 Q 72.160432,5.6784761 72.020753,5.3991191 71.881075,5.1197621 71.784374,4.7974271 71.65544,4.3783916 71.65544,3.9593561 q 0,-0.472758 0.21489,-0.988494 0.107445,-0.2471235 0.300846,-0.3975466 0.204146,-0.1611675 0.451269,-0.1611675 0.193401,0 0.354569,0.128934 0.171912,0.1181896 0.171912,0.2901016 0,0.0967 -0.07521,0.150423 -0.07521,0.053722 -0.182656,0.053722 -0.11819,0 -0.225635,-0.064467 -0.236379,0.010744 -0.376057,0.4190355 -0.11819,0.3760575 -0.11819,0.623181 0,0.3115905 0.0967,0.6339255 0.0967,0.3115905 0.247123,0.5694585 l 0.236379,0.42978 0.376058,0.709137 q 0.150423,0.300846 0.236379,0.6983925 0.0967,0.3975465 0.0967,0.8058375 0,0.6554145 -0.300846,1.246362 -0.150423,0.3008461 -0.42978,0.4835026 -0.268612,0.1826565 -0.601692,0.1826565 z"
       style="font-weight:bold;font-size:10.7445px;font-family:'Amatic SC';-inkscape-font-specification:'Amatic SC Bold';fill:#393e41;stroke-width:0.125912"
       id="path339" />
    <path
       d="m 3.0573785,2.128015 h 1.41111 l 0.94075,-0.9407401 h 2.8222203 l 0.94075,0.9407401 h 1.4111102 a 0.94074073,0.94074073 0 0 1 0.94073,0.940741 V 8.7132 a 0.94074073,0.94074073 0 0 1 -0.94073,0.940742 H 3.0573785 A 0.94074073,0.94074073 0 0 1 2.1166485,8.7132 V 3.068756 a 0.94074073,0.94074073 0 0 1 0.94073,-0.940741 m 3.76297,1.411111 a 2.3518517,2.3518517 0 0 0 -2.35186,2.351852 2.3518517,2.3518517 0 0 0 2.35186,2.351853 A 2.3518517,2.3518517 0 0 0 9.1722088,5.890978 2.3518517,2.3518517 0 0 0 6.8203485,3.539126 m 0,0.940741 a 1.4111111,1.4111111 0 0 1 1.4111103,1.411111 1.4111111,1.4111111 0 0 1 -1.4111103,1.411111 1.4111111,1.4111111 0 0 1 -1.41111,-1.411111 1.4111111,1.4111111 0 0 1 1.41111,-1.411111 z"
       id="path412"
       style="stroke-width:0.47037" />
  </g>
  <metadata
     id="metadata243">
    <rdf:RDF>
      <cc:Work
         rdf:about="">
        <dc:creator>
          <cc:Agent>
            <dc:title>Kai Wright</dc:title>
          </cc:Agent>
        </dc:creator>
        <dc:language>English</dc:language>
        <dc:description>Made by Kai Wright</dc:description>
      </cc:Work>
    </rdf:RDF>
  </metadata>
</svg>
